<svg width="556" height="98" viewBox="0 0 556 98" fill="none" xmlns="http://www.w3.org/2000/svg">
<path d="M16.9635 8.96C21.3155 6.14399 25.9661 3.96799 30.9155 2.432C35.9501 0.810661 40.8568 -7.62939e-06 45.6355 -7.62939e-06C46.2328 -7.62939e-06 46.8728 0.042661 47.5555 0.127998C48.3235 0.127998 49.3901 0.170664 50.7555 0.255997L51.9075 78.976L78.7875 0.639992H87.7475L52.1635 96H32.7075V8.576C26.0515 10.624 21.0168 14.0373 17.6035 18.816C14.2755 23.5947 12.6115 29.6533 12.6115 36.992C12.6115 38.6133 12.6968 40.0213 12.8675 41.216C13.1235 42.4107 13.5075 43.5627 14.0195 44.672C14.1901 45.0133 14.2755 45.2693 14.2755 45.44C14.3608 45.5253 14.4035 45.6107 14.4035 45.696C9.62479 45.696 6.12612 44.7147 3.90745 42.752C1.77412 40.704 0.707453 37.5467 0.707453 33.28C0.707453 29.0133 2.11545 24.7467 4.93145 20.48C7.83279 16.2133 11.8435 12.3733 16.9635 8.96ZM76.8975 76.288C76.8975 71.424 77.6655 66.2613 79.2015 60.8C80.8228 55.3387 82.9988 50.4747 85.7295 46.208C88.8868 41.1733 92.6841 37.376 97.1215 34.816C101.559 32.1707 106.508 30.848 111.969 30.848C117.431 30.848 121.527 32.5547 124.257 35.968C126.988 39.3813 128.353 44.5013 128.353 51.328C128.524 51.4133 128.695 51.4987 128.865 51.584C129.121 51.584 129.42 51.584 129.761 51.584C132.407 51.584 135.564 50.8587 139.233 49.408C142.903 47.9573 146.316 46.1227 149.473 43.904L150.625 47.36C148.236 49.92 145.036 52.1387 141.025 54.016C137.1 55.8933 132.748 57.216 127.969 57.984C126.945 69.504 123.617 78.8053 117.985 85.888C112.353 92.9707 105.484 96.512 97.3775 96.512C90.7215 96.512 85.6441 94.8053 82.1455 91.392C78.6468 87.9787 76.8975 82.944 76.8975 76.288ZM112.993 38.656C108.897 38.656 105.015 42.7947 101.345 51.072C97.7615 59.3493 95.9695 67.2 95.9695 74.624C95.9695 78.6347 96.3961 81.3653 97.2495 82.816C98.1881 84.2667 99.9375 84.992 102.497 84.992C105.655 84.992 108.641 82.432 111.457 77.312C114.359 72.192 116.321 65.8773 117.345 58.368C116.151 58.112 115.255 57.5573 114.657 56.704C114.145 55.7653 113.889 54.528 113.889 52.992C113.889 51.3707 114.231 49.9627 114.913 48.768C115.596 47.5733 116.577 46.6773 117.857 46.08C117.687 43.3493 117.217 41.4293 116.449 40.32C115.767 39.2107 114.615 38.656 112.993 38.656ZM182.04 42.624C182.04 45.5253 181.4 47.8293 180.12 49.536C178.926 51.1573 177.304 51.968 175.256 51.968C174.574 51.968 173.848 51.84 173.08 51.584C172.312 51.328 171.544 50.944 170.776 50.432C171.288 49.0667 171.672 47.744 171.928 46.464C172.184 45.184 172.312 43.9893 172.312 42.88C172.312 41.1733 172.014 39.8933 171.416 39.04C170.819 38.1013 169.923 37.632 168.728 37.632C164.974 37.632 161.304 41.984 157.72 50.688C154.136 59.3067 152.344 67.4987 152.344 75.264C152.344 79.1893 152.984 81.9627 154.264 83.584C155.63 85.2053 158.062 86.016 161.56 86.016C165.571 86.016 169.24 85.12 172.568 83.328C175.982 81.4507 179.864 78.0373 184.216 73.088H188.568C183.619 81.1093 178.243 87.0827 172.44 91.008C166.638 94.848 160.28 96.768 153.368 96.768C146.798 96.768 141.806 95.0613 138.392 91.648C135.064 88.2347 133.4 83.1573 133.4 76.416C133.4 71.552 134.126 66.3893 135.576 60.928C137.112 55.4667 139.203 50.6027 141.848 46.336C145.006 41.216 148.76 37.376 153.112 34.816C157.55 32.1707 162.456 30.848 167.832 30.848C172.526 30.848 176.067 31.872 178.456 33.92C180.846 35.8827 182.04 38.784 182.04 42.624ZM226.289 37.888V38.784L227.697 32H246.129L236.913 75.52C236.743 76.288 236.615 77.0133 236.529 77.696C236.444 78.2933 236.401 78.9333 236.401 79.616C236.401 81.4933 236.828 82.9013 237.681 83.84C238.535 84.6933 239.857 85.12 241.649 85.12C243.868 85.12 245.873 84.096 247.665 82.048C249.457 79.9147 250.908 76.928 252.017 73.088H257.393C254.663 80.9387 251.121 86.8693 246.769 90.88C242.417 94.8053 237.383 96.768 231.665 96.768C227.996 96.768 225.052 95.744 222.833 93.696C220.7 91.648 219.463 88.7467 219.121 84.992C216.476 88.9173 213.532 91.8613 210.289 93.824C207.132 95.7867 203.719 96.768 200.049 96.768C194.759 96.768 190.577 94.976 187.505 91.392C184.519 87.808 183.025 82.7307 183.025 76.16C183.025 71.3813 183.751 66.3893 185.201 61.184C186.652 55.9787 188.657 51.2427 191.217 46.976C194.375 41.9413 198.044 38.1013 202.225 35.456C206.407 32.7253 210.972 31.36 215.921 31.36C219.249 31.36 221.809 31.9573 223.601 33.152C225.393 34.2613 226.289 35.84 226.289 37.888ZM225.137 44.16C225.137 42.88 224.668 41.7707 223.729 40.832C222.791 39.808 221.511 39.296 219.889 39.296C215.196 39.296 211.015 43.2213 207.345 51.072C203.761 58.9227 201.969 66.688 201.969 74.368C201.969 77.696 202.439 80.2133 203.377 81.92C204.316 83.5413 205.98 84.352 208.369 84.352C210.588 84.352 212.721 83.2853 214.769 81.152C216.903 79.0187 218.311 76.3307 218.993 73.088L225.137 44.16ZM251.04 81.408C251.04 80.2987 251.126 79.0613 251.296 77.696C251.467 76.2453 251.723 74.7093 252.064 73.088L265.76 8.96L284.704 6.39999L269.984 75.52C269.814 76.288 269.686 77.0133 269.6 77.696C269.515 78.2933 269.472 78.9333 269.472 79.616C269.472 81.3227 269.856 82.56 270.624 83.328C271.478 84.0107 272.843 84.352 274.72 84.352C277.11 84.352 279.371 83.328 281.504 81.28C283.638 79.1467 285.216 76.416 286.24 73.088H291.616C288.886 80.8533 285.216 86.7413 280.608 90.752C276 94.7627 270.71 96.768 264.736 96.768C260.47 96.768 257.099 95.4453 254.624 92.8C252.235 90.0693 251.04 86.272 251.04 81.408Z" fill="#6695F2"/>
<path d="M315.169 96V29.346H288.079V11.832H362.041V29.346H334.951V96H315.169ZM390.423 97.512C383.703 97.512 377.739 96.21 372.531 93.606C367.407 90.918 363.375 87.096 360.435 82.14C357.579 77.184 356.151 71.262 356.151 64.374C356.151 57.738 357.663 51.984 360.687 47.112C363.795 42.24 367.869 38.46 372.909 35.772C378.033 33.084 383.619 31.74 389.667 31.74C396.555 31.74 402.435 33.378 407.307 36.654C412.263 39.846 416.001 44.298 418.521 50.01C421.041 55.638 422.091 62.148 421.671 69.54H375.429C375.765 73.908 377.361 77.184 380.217 79.368C383.157 81.552 386.391 82.644 389.919 82.644C392.859 82.644 395.379 82.224 397.479 81.384C399.663 80.46 401.343 79.326 402.519 77.982L417.765 83.526C414.489 88.314 410.373 91.842 405.417 94.11C400.545 96.378 395.547 97.512 390.423 97.512ZM375.429 58.2H403.905C403.821 54.168 402.435 51.144 399.747 49.128C397.059 47.028 393.867 45.978 390.171 45.978C386.559 45.978 383.325 46.944 380.469 48.876C377.697 50.808 376.017 53.916 375.429 58.2ZM459.522 97.512C452.634 97.512 446.796 96.126 442.008 93.354C437.304 90.582 433.692 86.718 431.172 81.762C428.736 76.722 427.518 70.926 427.518 64.374C427.518 57.822 428.862 52.11 431.55 47.238C434.238 42.282 437.976 38.46 442.764 35.772C447.636 33.084 453.222 31.74 459.522 31.74C463.134 31.74 466.704 32.244 470.232 33.252C473.844 34.26 477.162 35.982 480.186 38.418C483.294 40.77 485.814 44.004 487.746 48.12L471.744 53.916C470.736 51.228 469.224 49.338 467.208 48.246C465.276 47.154 463.092 46.608 460.656 46.608C458.388 46.608 456.204 47.196 454.104 48.372C452.004 49.464 450.282 51.312 448.938 53.916C447.678 56.52 447.048 60.048 447.048 64.5C447.048 69.036 447.72 72.648 449.064 75.336C450.408 77.94 452.088 79.83 454.104 81.006C456.204 82.098 458.388 82.644 460.656 82.644C463.344 82.644 465.612 82.14 467.46 81.132C469.308 80.04 470.778 78.57 471.87 76.722L487.494 82.392C485.394 86.172 482.79 89.196 479.682 91.464C476.574 93.648 473.256 95.202 469.728 96.126C466.284 97.05 462.882 97.512 459.522 97.512ZM496.255 96V11.832H515.407V41.82C516.835 39.468 519.187 37.2 522.463 35.016C525.823 32.832 529.897 31.74 534.685 31.74C542.749 31.74 548.251 34.008 551.191 38.544C554.215 42.996 555.727 49.464 555.727 57.948V96H536.575V62.736C536.575 59.796 536.407 57.108 536.071 54.672C535.735 52.236 534.895 50.304 533.551 48.876C532.291 47.364 530.107 46.608 526.999 46.608C522.967 46.608 520.027 48.078 518.179 51.018C516.331 53.874 515.407 58.158 515.407 63.87V96H496.255Z" fill="#5E66F2"/>
</svg>
